<mxfile host="app.diagrams.net" modified="2021-12-30T18:05:30.190Z" agent="5.0 (Macintosh; Intel Mac OS X 10_15_7) AppleWebKit/537.36 (KHTML, like Gecko) Chrome/96.0.4664.110 Safari/537.36" etag="nllvhbeXgnmauwbQDGew" version="16.1.2" type="github">
  <diagram id="JPnvSrMMi13SFNW_YZ52" name="Page-1">
    <mxGraphModel dx="2505" dy="2111" grid="1" gridSize="10" guides="1" tooltips="1" connect="1" arrows="1" fold="1" page="1" pageScale="1" pageWidth="827" pageHeight="1169" math="0" shadow="0">
      <root>
        <mxCell id="0" />
        <mxCell id="1" parent="0" />
        <mxCell id="Xo1jZSkhkY22Sqqv91Wa-10" style="edgeStyle=orthogonalEdgeStyle;rounded=0;orthogonalLoop=1;jettySize=auto;html=1;" parent="1" source="Xo1jZSkhkY22Sqqv91Wa-1" target="Xo1jZSkhkY22Sqqv91Wa-2" edge="1">
          <mxGeometry relative="1" as="geometry">
            <mxPoint x="210" y="245" as="sourcePoint" />
            <mxPoint x="470" y="575" as="targetPoint" />
            <Array as="points">
              <mxPoint x="500" y="245" />
            </Array>
          </mxGeometry>
        </mxCell>
        <mxCell id="Xo1jZSkhkY22Sqqv91Wa-11" value="3. HTTP: v1/api/webhooks/kwatch" style="edgeLabel;html=1;align=center;verticalAlign=middle;resizable=0;points=[];fontSize=14;" parent="Xo1jZSkhkY22Sqqv91Wa-10" vertex="1" connectable="0">
          <mxGeometry x="0.0308" relative="1" as="geometry">
            <mxPoint x="-82" y="-52" as="offset" />
          </mxGeometry>
        </mxCell>
        <mxCell id="Xo1jZSkhkY22Sqqv91Wa-12" value="1. Producer / 2. Consumer" style="edgeStyle=orthogonalEdgeStyle;rounded=0;orthogonalLoop=1;jettySize=auto;html=1;fontSize=14;startArrow=classic;startFill=1;" parent="1" source="Xo1jZSkhkY22Sqqv91Wa-1" target="Xo1jZSkhkY22Sqqv91Wa-7" edge="1">
          <mxGeometry relative="1" as="geometry">
            <Array as="points">
              <mxPoint x="145" y="135" />
              <mxPoint x="360" y="135" />
            </Array>
          </mxGeometry>
        </mxCell>
        <mxCell id="Xo1jZSkhkY22Sqqv91Wa-1" value="K-Watch&lt;br&gt;webhook" style="rounded=1;whiteSpace=wrap;html=1;fillColor=#dae8fc;strokeColor=#6c8ebf;" parent="1" vertex="1">
          <mxGeometry x="100" y="220" width="100" height="50" as="geometry" />
        </mxCell>
        <mxCell id="Xo1jZSkhkY22Sqqv91Wa-24" value="&lt;span style=&quot;font-size: 14px&quot;&gt;2. Consumer&lt;/span&gt;" style="edgeStyle=orthogonalEdgeStyle;rounded=0;orthogonalLoop=1;jettySize=auto;html=1;entryX=0.5;entryY=1;entryDx=0;entryDy=0;fontSize=11;endArrow=blockThin;endFill=1;startArrow=classic;startFill=1;" parent="1" source="Xo1jZSkhkY22Sqqv91Wa-2" target="Xo1jZSkhkY22Sqqv91Wa-18" edge="1">
          <mxGeometry x="0.4725" relative="1" as="geometry">
            <Array as="points">
              <mxPoint x="560" y="480" />
              <mxPoint x="560" y="480" />
            </Array>
            <mxPoint as="offset" />
          </mxGeometry>
        </mxCell>
        <mxCell id="Xo1jZSkhkY22Sqqv91Wa-43" value="&lt;span style=&quot;font-size: 14px&quot;&gt;1. Producer&amp;nbsp;&lt;/span&gt;" style="edgeLabel;html=1;align=center;verticalAlign=middle;resizable=0;points=[];fontSize=15;" parent="Xo1jZSkhkY22Sqqv91Wa-24" vertex="1" connectable="0">
          <mxGeometry x="0.1341" y="1" relative="1" as="geometry">
            <mxPoint x="1" y="-147" as="offset" />
          </mxGeometry>
        </mxCell>
        <mxCell id="Ij3Y-Yw_50M4-Q1MymbU-13" style="edgeStyle=orthogonalEdgeStyle;rounded=0;orthogonalLoop=1;jettySize=auto;html=1;fontSize=15;startArrow=classic;startFill=1;endArrow=blockThin;endFill=1;" edge="1" parent="1" source="Xo1jZSkhkY22Sqqv91Wa-2" target="Ij3Y-Yw_50M4-Q1MymbU-9">
          <mxGeometry relative="1" as="geometry">
            <Array as="points">
              <mxPoint x="1170" y="648" />
              <mxPoint x="1170" y="215" />
            </Array>
          </mxGeometry>
        </mxCell>
        <mxCell id="Ij3Y-Yw_50M4-Q1MymbU-15" style="edgeStyle=orthogonalEdgeStyle;rounded=0;orthogonalLoop=1;jettySize=auto;html=1;entryX=0;entryY=0.5;entryDx=0;entryDy=0;fontSize=15;startArrow=classic;startFill=1;endArrow=blockThin;endFill=1;" edge="1" parent="1" source="Xo1jZSkhkY22Sqqv91Wa-2" target="Ij3Y-Yw_50M4-Q1MymbU-10">
          <mxGeometry relative="1" as="geometry">
            <Array as="points">
              <mxPoint x="1170" y="648" />
              <mxPoint x="1170" y="350" />
            </Array>
          </mxGeometry>
        </mxCell>
        <mxCell id="Ij3Y-Yw_50M4-Q1MymbU-16" style="edgeStyle=orthogonalEdgeStyle;rounded=0;orthogonalLoop=1;jettySize=auto;html=1;entryX=0;entryY=0.5;entryDx=0;entryDy=0;fontSize=15;startArrow=classic;startFill=1;endArrow=blockThin;endFill=1;" edge="1" parent="1" source="Xo1jZSkhkY22Sqqv91Wa-2" target="Ij3Y-Yw_50M4-Q1MymbU-12">
          <mxGeometry relative="1" as="geometry">
            <Array as="points">
              <mxPoint x="1170" y="648" />
              <mxPoint x="1170" y="485" />
            </Array>
          </mxGeometry>
        </mxCell>
        <mxCell id="Xo1jZSkhkY22Sqqv91Wa-2" value="CRD: Pagerduty&lt;br&gt;&lt;br&gt;消费Event -&amp;gt; 创建Attachment -&amp;gt;&amp;nbsp; 创建Notification&amp;nbsp;" style="rounded=1;whiteSpace=wrap;html=1;fillColor=#dae8fc;strokeColor=#6c8ebf;" parent="1" vertex="1">
          <mxGeometry x="320" y="585" width="610" height="125" as="geometry" />
        </mxCell>
        <mxCell id="Xo1jZSkhkY22Sqqv91Wa-15" style="edgeStyle=orthogonalEdgeStyle;rounded=0;orthogonalLoop=1;jettySize=auto;html=1;fontSize=11;" parent="1" source="Xo1jZSkhkY22Sqqv91Wa-5" target="Xo1jZSkhkY22Sqqv91Wa-7" edge="1">
          <mxGeometry relative="1" as="geometry">
            <Array as="points">
              <mxPoint x="360" y="-5" />
            </Array>
          </mxGeometry>
        </mxCell>
        <mxCell id="Xo1jZSkhkY22Sqqv91Wa-19" style="edgeStyle=orthogonalEdgeStyle;rounded=0;orthogonalLoop=1;jettySize=auto;html=1;fontSize=11;endArrow=blockThin;endFill=1;" parent="1" source="Xo1jZSkhkY22Sqqv91Wa-5" target="Xo1jZSkhkY22Sqqv91Wa-18" edge="1">
          <mxGeometry relative="1" as="geometry" />
        </mxCell>
        <mxCell id="Xo1jZSkhkY22Sqqv91Wa-22" style="edgeStyle=orthogonalEdgeStyle;rounded=0;orthogonalLoop=1;jettySize=auto;html=1;fontSize=11;endArrow=blockThin;endFill=1;" parent="1" source="Xo1jZSkhkY22Sqqv91Wa-5" target="Xo1jZSkhkY22Sqqv91Wa-20" edge="1">
          <mxGeometry relative="1" as="geometry" />
        </mxCell>
        <mxCell id="Xo1jZSkhkY22Sqqv91Wa-23" style="edgeStyle=orthogonalEdgeStyle;rounded=0;orthogonalLoop=1;jettySize=auto;html=1;fontSize=11;endArrow=blockThin;endFill=1;" parent="1" source="Xo1jZSkhkY22Sqqv91Wa-5" target="Xo1jZSkhkY22Sqqv91Wa-21" edge="1">
          <mxGeometry relative="1" as="geometry" />
        </mxCell>
        <mxCell id="Xo1jZSkhkY22Sqqv91Wa-38" style="edgeStyle=orthogonalEdgeStyle;rounded=0;orthogonalLoop=1;jettySize=auto;html=1;entryX=0.5;entryY=0;entryDx=0;entryDy=0;fontSize=11;endArrow=blockThin;endFill=1;" parent="1" source="Xo1jZSkhkY22Sqqv91Wa-5" target="Xo1jZSkhkY22Sqqv91Wa-37" edge="1">
          <mxGeometry relative="1" as="geometry" />
        </mxCell>
        <mxCell id="Xo1jZSkhkY22Sqqv91Wa-5" value="Pulsar" style="shape=cylinder3;whiteSpace=wrap;html=1;boundedLbl=1;backgroundOutline=1;size=15;fillColor=#e1d5e7;strokeColor=#9673a6;" parent="1" vertex="1">
          <mxGeometry x="530" y="-40" width="420" height="70" as="geometry" />
        </mxCell>
        <mxCell id="Xo1jZSkhkY22Sqqv91Wa-7" value="&lt;pre style=&quot;background-color: rgb(255 , 255 , 255) ; color: rgb(8 , 8 , 8) ; font-family: &amp;#34;jetbrains mono&amp;#34; , monospace ; font-size: 11px&quot;&gt;&lt;font style=&quot;font-size: 11px&quot;&gt;topic&lt;/font&gt;&lt;/pre&gt;&lt;pre style=&quot;background-color: rgb(255 , 255 , 255) ; color: rgb(8 , 8 , 8) ; font-family: &amp;#34;jetbrains mono&amp;#34; , monospace ; font-size: 11px&quot;&gt;&lt;font style=&quot;font-size: 11px&quot;&gt;k-watch-event&lt;/font&gt;&lt;/pre&gt;" style="shape=process;whiteSpace=wrap;html=1;backgroundOutline=1;fillColor=#fff2cc;strokeColor=#d6b656;" parent="1" vertex="1">
          <mxGeometry x="280" y="60" width="160" height="50" as="geometry" />
        </mxCell>
        <mxCell id="Xo1jZSkhkY22Sqqv91Wa-30" style="edgeStyle=orthogonalEdgeStyle;rounded=0;orthogonalLoop=1;jettySize=auto;html=1;fontSize=11;endArrow=blockThin;endFill=1;" parent="1" source="Xo1jZSkhkY22Sqqv91Wa-16" target="Xo1jZSkhkY22Sqqv91Wa-1" edge="1">
          <mxGeometry relative="1" as="geometry" />
        </mxCell>
        <mxCell id="Xo1jZSkhkY22Sqqv91Wa-16" value="细节: K8s Informer:&lt;br&gt;Pod / Node / HPA / PV / EBS" style="ellipse;shape=cloud;whiteSpace=wrap;html=1;fontSize=11;" parent="1" vertex="1">
          <mxGeometry x="-260" y="185" width="240" height="120" as="geometry" />
        </mxCell>
        <mxCell id="Xo1jZSkhkY22Sqqv91Wa-18" value="&lt;pre style=&quot;background-color: rgb(255 , 255 , 255) ; color: rgb(8 , 8 , 8) ; font-family: &amp;#34;jetbrains mono&amp;#34; , monospace ; font-size: 11px&quot;&gt;&lt;font style=&quot;font-size: 11px&quot;&gt;topic&lt;/font&gt;&lt;/pre&gt;&lt;pre style=&quot;background-color: rgb(255 , 255 , 255) ; color: rgb(8 , 8 , 8) ; font-family: &amp;#34;jetbrains mono&amp;#34; , monospace ; font-size: 11px&quot;&gt;&lt;font style=&quot;font-size: 11px&quot;&gt;event&lt;/font&gt;&lt;/pre&gt;" style="shape=process;whiteSpace=wrap;html=1;backgroundOutline=1;fillColor=#fff2cc;strokeColor=#d6b656;" parent="1" vertex="1">
          <mxGeometry x="480" y="80" width="160" height="50" as="geometry" />
        </mxCell>
        <mxCell id="Ij3Y-Yw_50M4-Q1MymbU-1" style="edgeStyle=orthogonalEdgeStyle;rounded=0;orthogonalLoop=1;jettySize=auto;html=1;fontSize=15;startArrow=classic;startFill=1;endArrow=blockThin;endFill=1;" edge="1" parent="1" source="Xo1jZSkhkY22Sqqv91Wa-20" target="Xo1jZSkhkY22Sqqv91Wa-2">
          <mxGeometry relative="1" as="geometry">
            <Array as="points">
              <mxPoint x="740" y="480" />
              <mxPoint x="740" y="480" />
            </Array>
          </mxGeometry>
        </mxCell>
        <mxCell id="Ij3Y-Yw_50M4-Q1MymbU-2" value="4. Producer" style="edgeLabel;html=1;align=center;verticalAlign=middle;resizable=0;points=[];fontSize=15;" vertex="1" connectable="0" parent="Ij3Y-Yw_50M4-Q1MymbU-1">
          <mxGeometry x="-0.7011" y="-1" relative="1" as="geometry">
            <mxPoint y="72" as="offset" />
          </mxGeometry>
        </mxCell>
        <mxCell id="Ij3Y-Yw_50M4-Q1MymbU-5" value="6. Consumer / crawler数据" style="edgeLabel;html=1;align=center;verticalAlign=middle;resizable=0;points=[];fontSize=15;" vertex="1" connectable="0" parent="Ij3Y-Yw_50M4-Q1MymbU-1">
          <mxGeometry x="-0.1209" y="1" relative="1" as="geometry">
            <mxPoint x="9" y="10" as="offset" />
          </mxGeometry>
        </mxCell>
        <mxCell id="Ij3Y-Yw_50M4-Q1MymbU-7" value="(抓日志，监控，Tracing等)" style="edgeLabel;html=1;align=center;verticalAlign=middle;resizable=0;points=[];fontSize=15;" vertex="1" connectable="0" parent="Ij3Y-Yw_50M4-Q1MymbU-1">
          <mxGeometry x="0.3802" y="-3" relative="1" as="geometry">
            <mxPoint as="offset" />
          </mxGeometry>
        </mxCell>
        <mxCell id="Xo1jZSkhkY22Sqqv91Wa-20" value="&lt;pre style=&quot;background-color: rgb(255 , 255 , 255) ; color: rgb(8 , 8 , 8) ; font-family: &amp;#34;jetbrains mono&amp;#34; , monospace ; font-size: 11px&quot;&gt;&lt;font style=&quot;font-size: 11px&quot;&gt;topic&lt;/font&gt;&lt;/pre&gt;&lt;pre style=&quot;background-color: rgb(255 , 255 , 255) ; color: rgb(8 , 8 , 8) ; font-family: &amp;#34;jetbrains mono&amp;#34; , monospace ; font-size: 11px&quot;&gt;attachment&lt;/pre&gt;" style="shape=process;whiteSpace=wrap;html=1;backgroundOutline=1;fillColor=#fff2cc;strokeColor=#d6b656;" parent="1" vertex="1">
          <mxGeometry x="660" y="80" width="160" height="50" as="geometry" />
        </mxCell>
        <mxCell id="Ij3Y-Yw_50M4-Q1MymbU-3" style="edgeStyle=orthogonalEdgeStyle;rounded=0;orthogonalLoop=1;jettySize=auto;html=1;entryX=0.91;entryY=0.008;entryDx=0;entryDy=0;entryPerimeter=0;fontSize=15;startArrow=classic;startFill=1;endArrow=blockThin;endFill=1;" edge="1" parent="1" source="Xo1jZSkhkY22Sqqv91Wa-21" target="Xo1jZSkhkY22Sqqv91Wa-2">
          <mxGeometry relative="1" as="geometry" />
        </mxCell>
        <mxCell id="Ij3Y-Yw_50M4-Q1MymbU-4" value="3/5. Producer (判断是否需要延时)" style="edgeLabel;html=1;align=center;verticalAlign=middle;resizable=0;points=[];fontSize=15;" vertex="1" connectable="0" parent="Ij3Y-Yw_50M4-Q1MymbU-3">
          <mxGeometry x="-0.6712" y="1" relative="1" as="geometry">
            <mxPoint as="offset" />
          </mxGeometry>
        </mxCell>
        <mxCell id="Ij3Y-Yw_50M4-Q1MymbU-6" value="7. Consumer&amp;nbsp; / 发消息" style="edgeLabel;html=1;align=center;verticalAlign=middle;resizable=0;points=[];fontSize=15;" vertex="1" connectable="0" parent="Ij3Y-Yw_50M4-Q1MymbU-3">
          <mxGeometry x="-0.2249" y="-2" relative="1" as="geometry">
            <mxPoint x="12" y="-28" as="offset" />
          </mxGeometry>
        </mxCell>
        <mxCell id="Ij3Y-Yw_50M4-Q1MymbU-8" value="（发邮件/打电话/IM消息）" style="edgeLabel;html=1;align=center;verticalAlign=middle;resizable=0;points=[];fontSize=15;" vertex="1" connectable="0" parent="Ij3Y-Yw_50M4-Q1MymbU-3">
          <mxGeometry x="0.3032" y="1" relative="1" as="geometry">
            <mxPoint as="offset" />
          </mxGeometry>
        </mxCell>
        <mxCell id="Xo1jZSkhkY22Sqqv91Wa-21" value="&lt;pre style=&quot;background-color: rgb(255 , 255 , 255) ; color: rgb(8 , 8 , 8) ; font-family: &amp;#34;jetbrains mono&amp;#34; , monospace ; font-size: 11px&quot;&gt;&lt;font style=&quot;font-size: 11px&quot;&gt;topic&lt;/font&gt;&lt;/pre&gt;&lt;pre style=&quot;background-color: rgb(255 , 255 , 255) ; color: rgb(8 , 8 , 8) ; font-family: &amp;#34;jetbrains mono&amp;#34; , monospace ; font-size: 11px&quot;&gt;&lt;font style=&quot;font-size: 11px&quot;&gt;notification&lt;/font&gt;&lt;/pre&gt;" style="shape=process;whiteSpace=wrap;html=1;backgroundOutline=1;fillColor=#fff2cc;strokeColor=#d6b656;" parent="1" vertex="1">
          <mxGeometry x="830" y="80" width="160" height="50" as="geometry" />
        </mxCell>
        <mxCell id="Xo1jZSkhkY22Sqqv91Wa-31" style="edgeStyle=orthogonalEdgeStyle;rounded=0;orthogonalLoop=1;jettySize=auto;html=1;fontSize=11;endArrow=blockThin;endFill=1;" parent="1" source="Xo1jZSkhkY22Sqqv91Wa-26" target="Xo1jZSkhkY22Sqqv91Wa-2" edge="1">
          <mxGeometry relative="1" as="geometry">
            <Array as="points">
              <mxPoint x="470" y="345" />
            </Array>
          </mxGeometry>
        </mxCell>
        <mxCell id="Xo1jZSkhkY22Sqqv91Wa-33" value="&lt;span style=&quot;font-size: 14px&quot;&gt;HTTP: v1/api/webhooks/grafana&lt;/span&gt;" style="edgeLabel;html=1;align=center;verticalAlign=middle;resizable=0;points=[];fontSize=11;" parent="Xo1jZSkhkY22Sqqv91Wa-31" vertex="1" connectable="0">
          <mxGeometry x="-0.2" y="-1" relative="1" as="geometry">
            <mxPoint x="-74" y="-16" as="offset" />
          </mxGeometry>
        </mxCell>
        <mxCell id="Xo1jZSkhkY22Sqqv91Wa-26" value="Grafana&amp;nbsp;&lt;br&gt;webhook" style="rounded=1;whiteSpace=wrap;html=1;fontSize=11;fillColor=#dae8fc;strokeColor=#6c8ebf;" parent="1" vertex="1">
          <mxGeometry x="100" y="320" width="100" height="50" as="geometry" />
        </mxCell>
        <mxCell id="Xo1jZSkhkY22Sqqv91Wa-32" style="edgeStyle=orthogonalEdgeStyle;rounded=0;orthogonalLoop=1;jettySize=auto;html=1;fontSize=11;endArrow=blockThin;endFill=1;" parent="1" source="Xo1jZSkhkY22Sqqv91Wa-27" target="Xo1jZSkhkY22Sqqv91Wa-2" edge="1">
          <mxGeometry relative="1" as="geometry">
            <Array as="points">
              <mxPoint x="430" y="435" />
            </Array>
          </mxGeometry>
        </mxCell>
        <mxCell id="Xo1jZSkhkY22Sqqv91Wa-34" value="&lt;span style=&quot;font-size: 14px&quot;&gt;HTTP: v1/api/webhooks/alertmanager&lt;/span&gt;" style="edgeLabel;html=1;align=center;verticalAlign=middle;resizable=0;points=[];fontSize=11;" parent="Xo1jZSkhkY22Sqqv91Wa-32" vertex="1" connectable="0">
          <mxGeometry x="-0.2589" y="-1" relative="1" as="geometry">
            <mxPoint x="9" y="-16" as="offset" />
          </mxGeometry>
        </mxCell>
        <mxCell id="Xo1jZSkhkY22Sqqv91Wa-27" value="Alertmanager&amp;nbsp;&lt;br&gt;webhook" style="rounded=1;whiteSpace=wrap;html=1;fontSize=11;fillColor=#dae8fc;strokeColor=#6c8ebf;" parent="1" vertex="1">
          <mxGeometry x="100" y="405" width="100" height="50" as="geometry" />
        </mxCell>
        <mxCell id="Xo1jZSkhkY22Sqqv91Wa-35" style="edgeStyle=orthogonalEdgeStyle;rounded=0;orthogonalLoop=1;jettySize=auto;html=1;fontSize=11;endArrow=blockThin;endFill=1;" parent="1" source="Xo1jZSkhkY22Sqqv91Wa-28" target="Xo1jZSkhkY22Sqqv91Wa-2" edge="1">
          <mxGeometry relative="1" as="geometry">
            <mxPoint x="560" y="430" as="targetPoint" />
            <Array as="points">
              <mxPoint x="220" y="625" />
              <mxPoint x="220" y="700" />
            </Array>
          </mxGeometry>
        </mxCell>
        <mxCell id="Xo1jZSkhkY22Sqqv91Wa-36" value="&lt;span style=&quot;font-size: 14px&quot;&gt;HTTP: v1/api/webhooks/logstream&lt;/span&gt;" style="edgeLabel;html=1;align=center;verticalAlign=middle;resizable=0;points=[];fontSize=11;" parent="Xo1jZSkhkY22Sqqv91Wa-35" vertex="1" connectable="0">
          <mxGeometry x="-0.5423" y="2" relative="1" as="geometry">
            <mxPoint x="58" y="80" as="offset" />
          </mxGeometry>
        </mxCell>
        <mxCell id="Xo1jZSkhkY22Sqqv91Wa-39" style="edgeStyle=orthogonalEdgeStyle;rounded=0;orthogonalLoop=1;jettySize=auto;html=1;fontSize=11;endArrow=blockThin;endFill=1;startArrow=classicThin;startFill=1;" parent="1" source="Xo1jZSkhkY22Sqqv91Wa-28" target="Xo1jZSkhkY22Sqqv91Wa-37" edge="1">
          <mxGeometry relative="1" as="geometry">
            <Array as="points">
              <mxPoint x="150" y="750" />
              <mxPoint x="1100" y="750" />
            </Array>
          </mxGeometry>
        </mxCell>
        <mxCell id="Xo1jZSkhkY22Sqqv91Wa-42" value="Producer / Consumer" style="edgeLabel;html=1;align=center;verticalAlign=middle;resizable=0;points=[];fontSize=15;" parent="Xo1jZSkhkY22Sqqv91Wa-39" vertex="1" connectable="0">
          <mxGeometry x="-0.0475" y="-1" relative="1" as="geometry">
            <mxPoint x="-157" as="offset" />
          </mxGeometry>
        </mxCell>
        <mxCell id="Xo1jZSkhkY22Sqqv91Wa-28" value="logstream&amp;nbsp;&lt;br&gt;webhook" style="rounded=1;whiteSpace=wrap;html=1;fontSize=11;fillColor=#dae8fc;strokeColor=#6c8ebf;" parent="1" vertex="1">
          <mxGeometry x="100" y="600" width="100" height="50" as="geometry" />
        </mxCell>
        <mxCell id="Xo1jZSkhkY22Sqqv91Wa-37" value="&lt;pre style=&quot;background-color: rgb(255 , 255 , 255) ; color: rgb(8 , 8 , 8) ; font-family: &amp;#34;jetbrains mono&amp;#34; , monospace ; font-size: 11px&quot;&gt;&lt;font style=&quot;font-size: 11px&quot;&gt;topic&lt;/font&gt;&lt;/pre&gt;&lt;pre style=&quot;background-color: rgb(255 , 255 , 255) ; color: rgb(8 , 8 , 8) ; font-family: &amp;#34;jetbrains mono&amp;#34; , monospace ; font-size: 11px&quot;&gt;&lt;font style=&quot;font-size: 11px&quot;&gt;log-stream-async&lt;/font&gt;&lt;/pre&gt;" style="shape=process;whiteSpace=wrap;html=1;backgroundOutline=1;fillColor=#fff2cc;strokeColor=#d6b656;" parent="1" vertex="1">
          <mxGeometry x="1020" y="80" width="160" height="50" as="geometry" />
        </mxCell>
        <mxCell id="Xo1jZSkhkY22Sqqv91Wa-41" style="edgeStyle=orthogonalEdgeStyle;rounded=0;orthogonalLoop=1;jettySize=auto;html=1;fontSize=11;endArrow=blockThin;endFill=1;" parent="1" source="Xo1jZSkhkY22Sqqv91Wa-40" target="Xo1jZSkhkY22Sqqv91Wa-28" edge="1">
          <mxGeometry relative="1" as="geometry" />
        </mxCell>
        <mxCell id="Xo1jZSkhkY22Sqqv91Wa-40" value="细节: 自定义CRD&lt;br&gt;Regex Rule" style="ellipse;shape=cloud;whiteSpace=wrap;html=1;fontSize=11;" parent="1" vertex="1">
          <mxGeometry x="-260" y="565" width="240" height="120" as="geometry" />
        </mxCell>
        <mxCell id="Ij3Y-Yw_50M4-Q1MymbU-9" value="MatterMost" style="rounded=0;whiteSpace=wrap;html=1;fontSize=15;fillColor=#e1d5e7;strokeColor=#9673a6;" vertex="1" parent="1">
          <mxGeometry x="1230" y="185" width="120" height="60" as="geometry" />
        </mxCell>
        <mxCell id="Ij3Y-Yw_50M4-Q1MymbU-10" value="Email" style="rounded=0;whiteSpace=wrap;html=1;fontSize=15;fillColor=#e1d5e7;strokeColor=#9673a6;" vertex="1" parent="1">
          <mxGeometry x="1230" y="320" width="120" height="60" as="geometry" />
        </mxCell>
        <mxCell id="Ij3Y-Yw_50M4-Q1MymbU-12" value="Phone" style="rounded=0;whiteSpace=wrap;html=1;fontSize=15;fillColor=#e1d5e7;strokeColor=#9673a6;" vertex="1" parent="1">
          <mxGeometry x="1230" y="455" width="120" height="60" as="geometry" />
        </mxCell>
        <mxCell id="Ij3Y-Yw_50M4-Q1MymbU-21" style="edgeStyle=orthogonalEdgeStyle;rounded=0;orthogonalLoop=1;jettySize=auto;html=1;entryX=0;entryY=0.5;entryDx=0;entryDy=0;fontSize=15;startArrow=none;startFill=0;endArrow=blockThin;endFill=1;" edge="1" parent="1" source="Ij3Y-Yw_50M4-Q1MymbU-17" target="Ij3Y-Yw_50M4-Q1MymbU-19">
          <mxGeometry relative="1" as="geometry" />
        </mxCell>
        <mxCell id="Ij3Y-Yw_50M4-Q1MymbU-17" value="细节: Lambda&lt;br&gt;CloudWatch 告警" style="ellipse;shape=cloud;whiteSpace=wrap;html=1;fontSize=11;" vertex="1" parent="1">
          <mxGeometry x="-260" y="455" width="240" height="120" as="geometry" />
        </mxCell>
        <mxCell id="Ij3Y-Yw_50M4-Q1MymbU-20" value="&lt;span style=&quot;font-size: 14px&quot;&gt;HTTP: v1/api/webhooks/cloudwatch&lt;/span&gt;" style="edgeStyle=orthogonalEdgeStyle;rounded=0;orthogonalLoop=1;jettySize=auto;html=1;entryX=0.096;entryY=0.013;entryDx=0;entryDy=0;entryPerimeter=0;fontSize=15;startArrow=none;startFill=0;endArrow=blockThin;endFill=1;" edge="1" parent="1" source="Ij3Y-Yw_50M4-Q1MymbU-19" target="Xo1jZSkhkY22Sqqv91Wa-2">
          <mxGeometry x="0.0389" y="25" relative="1" as="geometry">
            <mxPoint x="-1" as="offset" />
          </mxGeometry>
        </mxCell>
        <mxCell id="Ij3Y-Yw_50M4-Q1MymbU-19" value="CloudWatch&amp;nbsp;&lt;br&gt;webhook" style="rounded=1;whiteSpace=wrap;html=1;fontSize=11;fillColor=#dae8fc;strokeColor=#6c8ebf;" vertex="1" parent="1">
          <mxGeometry x="100" y="490" width="100" height="50" as="geometry" />
        </mxCell>
      </root>
    </mxGraphModel>
  </diagram>
</mxfile>
